<?xml version="1.0" standalone="no"?><!DOCTYPE svg PUBLIC "-//W3C//DTD SVG 1.1//EN" "http://www.w3.org/Graphics/SVG/1.1/DTD/svg11.dtd"><svg t="1524540533596" class="icon" style="" viewBox="0 0 1138 1024" version="1.1" xmlns="http://www.w3.org/2000/svg" p-id="1421" xmlns:xlink="http://www.w3.org/1999/xlink" width="222.265625" height="200"><defs><style type="text/css"></style></defs><path d="M57.242236 1024l0-397.969831 397.969831 0 0 397.969831-397.969831 0zM683.272405 1024l0-397.969831 397.969831 0 0 397.969831-397.969831 0zM0 568.787933l0-284.393966 455.212067 0 0 284.393966-455.212067 0zM683.272405 284.393966l454.303461 0 0 284.393966-454.303461 0 0-284.393966zM512.454303 1024l0-739.606034 113.575865 0 0 739.606034-113.575865 0zM683.272405 57.242236l0 170.818101-228.060337 0 0-170.818101 228.060337 0zM1024 0l0 228.060337-284.393966 0 111.758651-228.060337 172.635315 0zM284.393966 0l114.484472 228.060337-284.393966 0 0-228.060337 169.909494 0z" p-id="1422"></path></svg>