<?xml version="1.0" standalone="no"?><!DOCTYPE svg PUBLIC "-//W3C//DTD SVG 1.1//EN" "http://www.w3.org/Graphics/SVG/1.1/DTD/svg11.dtd"><svg t="1524540659662" class="icon" style="" viewBox="0 0 1024 1024" version="1.1" xmlns="http://www.w3.org/2000/svg" p-id="1535" xmlns:xlink="http://www.w3.org/1999/xlink" width="200" height="200"><defs><style type="text/css"></style></defs><path d="M588.664054 191.131085l308.466444 308.647569c7.316639 7.316639 9.505491 18.320251 5.545296 27.879977-3.959172 9.559727-13.287631 15.792685-23.635303 15.792685l-84.934414 0 0 216.262462c0 33.803897-13.759375 53.508681-25.302269 64.086597-21.028942 19.269879-47.996131 21.650089-60.032258 21.650089-1.936095 0-52.81181-0.12382-52.81181-0.12382-14.128789 0-25.582655-11.452843-25.582655-25.582655L630.377084 640.670521l-118.703519 0L511.673565 819.742966c0 14.129812-11.453866 25.582655-25.582655 25.582655L313.014016 845.325621c-6.509251 0.232291-34.827203-0.086981-56.985876-20.893866-11.286044-10.597359-24.740474-30.429033-24.740474-64.719001L231.287667 543.450293l-84.934414 0c-10.354835 0-19.687388-6.242168-23.642466-15.811104s-1.7519-20.578688 5.582135-27.89021l323.364759-322.341452C505.560334 123.504872 531.458167 131.100874 588.664054 191.131085z" p-id="1536"></path></svg>